<?xml version="1.0" encoding="UTF-8" standalone="no"?>
<!DOCTYPE svg PUBLIC "-//W3C//DTD SVG 1.0//EN" "http://www.w3.org/TR/2001/REC-SVG-20010904/DTD/svg10.dtd">
<!-- Generated by Microsoft Visio 11.0, SVG Export, v1.0 valentines.svg Val -->
<svg xmlns="http://www.w3.org/2000/svg" xmlns:xlink="http://www.w3.org/1999/xlink" xmlns:ev="http://www.w3.org/2001/xml-events"
		xmlns:v="http://schemas.microsoft.com/visio/2003/SVGExtensions/" width="10.8047in" height="5.75347in"
		viewBox="0 0 777.94 414.25" xml:space="preserve" color-interpolation-filters="sRGB" class="st18">
	<v:documentProperties v:langID="1033" v:viewMarkup="false">
		<v:userDefs>
			<v:ud v:nameU="msvSubprocessMaster" v:prompt="" v:val="VT4(Rectangle)"/>
			<v:ud v:nameU="msvNoAutoConnect" v:val="VT0(1):26"/>
		</v:userDefs>
	</v:documentProperties>

	<style type="text/css">
	<![CDATA[
		.st1 {stroke:#d8d8d8;stroke-linecap:round;stroke-linejoin:round;stroke-width:3}
		.st2 {fill:#7f7f7f;stroke:none;stroke-linecap:round;stroke-linejoin:round;stroke-width:0.25}
		.st3 {fill:#7f7f7f;stroke:#404040;stroke-linecap:round;stroke-linejoin:round;stroke-width:0.25}
		.st4 {fill:#ffffff;stroke:none;stroke-linecap:round;stroke-linejoin:round;stroke-width:0.25}
		.st5 {stroke:#d8d8d8;stroke-linecap:round;stroke-linejoin:round;stroke-width:1.5}
		.st6 {fill:#595959;stroke:#404040;stroke-linecap:round;stroke-linejoin:round;stroke-width:0.25}
		.st7 {fill:#a5a5a5;stroke:none;stroke-linecap:round;stroke-linejoin:round;stroke-width:0.25}
		.st8 {fill:#d8d8d8;stroke:none;stroke-linecap:round;stroke-linejoin:round;stroke-width:0.25}
		.st9 {fill:#bfbfbf;stroke:none;stroke-linecap:round;stroke-linejoin:round;stroke-width:0.25}
		.st10 {fill:#595959;stroke:none;stroke-linecap:round;stroke-linejoin:round;stroke-width:0.25}
		.st11 {stroke:#595959;stroke-linecap:round;stroke-linejoin:round;stroke-width:6}
		.st12 {fill:#fedafd;stroke:none;stroke-linecap:round;stroke-linejoin:round;stroke-width:0.25}
		.st13 {fill:#ca0973;stroke:none;stroke-linecap:round;stroke-linejoin:round;stroke-width:0.25}
		.st14 {fill:#404040;fill-opacity:1;stroke:#404040;stroke-opacity:1;stroke-width:0.090252707581227}
		.st15 {fill:#a83e71;stroke:none;stroke-linecap:round;stroke-linejoin:round;stroke-width:0.25}
		.st16 {fill:#f2f2f2;stroke:none;stroke-linecap:round;stroke-linejoin:round;stroke-width:0.25}
		.st17 {fill:#bfbfbf;font-family:Calibri;font-size:1.99999em}
		.st18 {fill:none;fill-rule:evenodd;font-size:12px;overflow:visible;stroke-linecap:square;stroke-miterlimit:3}
	]]>
	</style>

	<defs id="Patterns_And_Gradients">
		<linearGradient id="grad30-5" v:fillPattern="30" v:foreground="#f0f0f0" v:background="#ffffff" x1="0" y1="1" x2="0" y2="0">
			<stop offset="0" style="stop-color:#f0f0f0;stop-opacity:1"/>
			<stop offset="1" style="stop-color:#ffffff;stop-opacity:1"/>
		</linearGradient>
		<linearGradient id="grad30-93" v:fillPattern="30" v:foreground="#f0f0f0" v:background="#7f7f7f" x1="0" y1="1" x2="0" y2="0">
			<stop offset="0" style="stop-color:#f0f0f0;stop-opacity:1"/>
			<stop offset="1" style="stop-color:#7f7f7f;stop-opacity:1"/>
		</linearGradient>
	</defs>
	<defs id="Markers">
		<g id="lend1">
			<path d="M 1 -1 L 0 0 L 1 1 " style="stroke-linecap:round;stroke-linejoin:round;fill:none"/>
		</g>
		<marker id="mrkr1-133" class="st14" v:arrowType="1" v:arrowSize="2" orient="auto" markerUnits="strokeWidth"
				overflow="visible">
			<use xlink:href="#lend1" transform="scale(11.08) "/>
		</marker>
		<marker id="mrkr1-135" class="st14" v:arrowType="1" v:arrowSize="2" orient="auto" markerUnits="strokeWidth"
				overflow="visible">
			<use xlink:href="#lend1" transform="scale(-11.08,-11.08) "/>
		</marker>
	</defs>
	<g v:mID="4" v:index="2" v:groupContext="foregroundPage">
		<v:userDefs>
			<v:ud v:nameU="msvThemeColors" v:val="VT0(36):26"/>
			<v:ud v:nameU="msvThemeEffects" v:val="VT0(16):26"/>
			<v:ud v:nameU="msvThemeOrder" v:val="VT0(0):26"/>
		</v:userDefs>
		<title>Val</title>
		<v:pageProperties v:drawingScale="1" v:pageScale="1" v:drawingUnits="0" v:shadowOffsetX="9" v:shadowOffsetY="-9"/>
		<g id="group14-1" transform="translate(328.156,-114.878)" v:mID="14" v:groupContext="group">
			<v:userDefs>
				<v:ud v:nameU="msvThemeColors" v:val="VT0(36):26"/>
				<v:ud v:nameU="msvThemeEffects" v:val="VT0(16):26"/>
			</v:userDefs>
			<title>Sheet.14</title>
			<g id="shape8-2" v:mID="8" v:groupContext="shape" transform="translate(34.0411,818.219) rotate(180)">
				<title>Sheet.8</title>
				<v:userDefs>
					<v:ud v:nameU="msvThemeColors" v:val="VT0(36):26"/>
					<v:ud v:nameU="msvThemeEffects" v:val="VT0(16):26"/>
				</v:userDefs>
				<path d="M0 414.25 L23.76 414.25" class="st1"/>
			</g>
			<g id="shape6-7" v:mID="6" v:groupContext="shape">
				<title>Circle.6</title>
				<v:userDefs>
					<v:ud v:nameU="visVersion" v:val="VT0(14):26"/>
					<v:ud v:nameU="msvThemeColors" v:val="VT0(36):26"/>
					<v:ud v:nameU="msvThemeEffects" v:val="VT0(16):26"/>
				</v:userDefs>
				<path d="M0 403.97 A10.2813 10.2813 0 1 1 20.56 403.97 A10.2813 10.2813 0 0 1 0 403.97 Z" class="st2"/>
			</g>
			<g id="shape17-9" v:mID="17" v:groupContext="shape" transform="translate(342.267,681.581) rotate(135)">
				<title>Sheet.17</title>
				<v:userDefs>
					<v:ud v:nameU="msvThemeColors" v:val="VT0(36):26"/>
					<v:ud v:nameU="msvThemeEffects" v:val="VT0(16):26"/>
				</v:userDefs>
				<path d="M0 414.25 L21.65 414.25" class="st1"/>
			</g>
			<g id="shape12-13" v:mID="12" v:groupContext="shape" transform="translate(37.5981,-13.8383)">
				<title>Circle.12</title>
				<v:userDefs>
					<v:ud v:nameU="visVersion" v:val="VT0(14):26"/>
					<v:ud v:nameU="msvThemeColors" v:val="VT0(36):26"/>
					<v:ud v:nameU="msvThemeEffects" v:val="VT0(16):26"/>
				</v:userDefs>
				<path d="M0 402.5 A11.75 11.75 0 1 1 23.5 402.5 A11.75 11.75 0 0 1 0 402.5 Z" class="st3"/>
			</g>
			<g id="shape13-15" v:mID="13" v:groupContext="shape" transform="translate(41.3581,-17.5983)">
				<title>Circle.13</title>
				<v:userDefs>
					<v:ud v:nameU="visVersion" v:val="VT0(14):26"/>
					<v:ud v:nameU="msvThemeColors" v:val="VT0(36):26"/>
					<v:ud v:nameU="msvThemeEffects" v:val="VT0(16):26"/>
				</v:userDefs>
				<path d="M0 406.26 A7.99 7.99 0 0 1 15.98 406.26 A7.99 7.99 0 0 1 0 406.26 Z" class="st4"/>
			</g>
			<g id="shape11-17" v:mID="11" v:groupContext="shape" transform="translate(332.314,84.5867) rotate(45)">
				<title>Rectangle.11</title>
				<v:userDefs>
					<v:ud v:nameU="visVersion" v:val="VT0(14):26"/>
					<v:ud v:nameU="msvThemeColors" v:val="VT0(36):26"/>
					<v:ud v:nameU="msvThemeEffects" v:val="VT0(16):26"/>
				</v:userDefs>
				<rect x="0" y="392.293" width="30.3398" height="21.9574" class="st4"/>
			</g>
		</g>
		<g id="group70-19" transform="translate(372.219,-19.44)" v:mID="70" v:groupContext="group">
			<v:userDefs>
				<v:ud v:nameU="msvThemeColors" v:val="VT0(36):26"/>
				<v:ud v:nameU="msvThemeEffects" v:val="VT0(16):26"/>
			</v:userDefs>
			<title>Sheet.70</title>
			<g id="group89-20" transform="translate(386.281,-57.25) scale(-1,1)" v:mID="89" v:groupContext="group">
				<v:userDefs>
					<v:ud v:nameU="msvThemeColors" v:val="VT0(36):26"/>
					<v:ud v:nameU="msvThemeEffects" v:val="VT0(16):26"/>
				</v:userDefs>
				<title>Sheet.89</title>
				<g id="shape90-21" v:mID="90" v:groupContext="shape" transform="translate(277.755,721.602) rotate(149.036)">
					<title>Sheet.90</title>
					<v:userDefs>
						<v:ud v:nameU="msvThemeColors" v:val="VT0(36):26"/>
						<v:ud v:nameU="msvThemeEffects" v:val="VT0(16):26"/>
					</v:userDefs>
					<path d="M0 414.25 L42.82 414.25" class="st1"/>
				</g>
				<g id="shape91-25" v:mID="91" v:groupContext="shape" transform="translate(54.3438,-37.5836)">
					<title>Circle</title>
					<v:userDefs>
						<v:ud v:nameU="visVersion" v:val="VT0(14):26"/>
						<v:ud v:nameU="msvThemeColors" v:val="VT0(36):26"/>
						<v:ud v:nameU="msvThemeEffects" v:val="VT0(16):26"/>
					</v:userDefs>
					<path d="M0 403.97 A10.2813 10.2813 0 0 1 20.56 403.97 A10.2813 10.2813 0 1 1 0 403.97 Z" class="st2"/>
				</g>
				<g id="shape92-27" v:mID="92" v:groupContext="shape" transform="translate(16.1563,-14.0836)">
					<title>Circle.9</title>
					<v:userDefs>
						<v:ud v:nameU="visVersion" v:val="VT0(14):26"/>
						<v:ud v:nameU="msvThemeColors" v:val="VT0(36):26"/>
						<v:ud v:nameU="msvThemeEffects" v:val="VT0(16):26"/>
					</v:userDefs>
					<path d="M0 402.5 A11.75 11.75 0 1 1 23.5 402.5 A11.75 11.75 0 0 1 0 402.5 Z" class="st3"/>
				</g>
				<g id="shape93-29" v:mID="93" v:groupContext="shape" transform="translate(19.9163,-17.8436)">
					<title>Circle.10</title>
					<v:userDefs>
						<v:ud v:nameU="visVersion" v:val="VT0(14):26"/>
						<v:ud v:nameU="msvThemeColors" v:val="VT0(36):26"/>
						<v:ud v:nameU="msvThemeEffects" v:val="VT0(16):26"/>
					</v:userDefs>
					<path d="M0 406.26 A7.99 7.99 0 0 1 15.98 406.26 A7.99 7.99 0 1 1 -0 406.26 Z" class="st4"/>
				</g>
				<g id="shape94-31" v:mID="94" v:groupContext="shape" transform="translate(292.919,99.8776) rotate(45)">
					<title>Rectangle.16</title>
					<v:userDefs>
						<v:ud v:nameU="visVersion" v:val="VT0(14):26"/>
						<v:ud v:nameU="msvThemeColors" v:val="VT0(36):26"/>
						<v:ud v:nameU="msvThemeEffects" v:val="VT0(16):26"/>
					</v:userDefs>
					<rect x="0" y="392.293" width="30.3398" height="21.9574" class="st4"/>
				</g>
			</g>
			<g id="group49-33" transform="translate(76.375,-96.042) scale(-1,1)" v:mID="49" v:groupContext="group">
				<v:userDefs>
					<v:ud v:nameU="msvThemeColors" v:val="VT0(36):26"/>
					<v:ud v:nameU="msvThemeEffects" v:val="VT0(16):26"/>
				</v:userDefs>
				<title>Sheet.49</title>
				<g id="shape50-34" v:mID="50" v:groupContext="shape" transform="translate(34.0411,818.219) rotate(180)">
					<title>Sheet.50</title>
					<v:userDefs>
						<v:ud v:nameU="msvThemeColors" v:val="VT0(36):26"/>
						<v:ud v:nameU="msvThemeEffects" v:val="VT0(16):26"/>
					</v:userDefs>
					<path d="M0 414.25 L23.76 414.25" class="st1"/>
				</g>
				<g id="shape51-38" v:mID="51" v:groupContext="shape">
					<title>Circle.6</title>
					<v:userDefs>
						<v:ud v:nameU="visVersion" v:val="VT0(14):26"/>
						<v:ud v:nameU="msvThemeColors" v:val="VT0(36):26"/>
						<v:ud v:nameU="msvThemeEffects" v:val="VT0(16):26"/>
					</v:userDefs>
					<path d="M0 403.97 A10.2813 10.2813 0 1 1 20.56 403.97 A10.2813 10.2813 0 1 1 0 403.97 Z" class="st2"/>
				</g>
				<g id="shape52-40" v:mID="52" v:groupContext="shape" transform="translate(342.267,681.581) rotate(135)">
					<title>Sheet.52</title>
					<v:userDefs>
						<v:ud v:nameU="msvThemeColors" v:val="VT0(36):26"/>
						<v:ud v:nameU="msvThemeEffects" v:val="VT0(16):26"/>
					</v:userDefs>
					<path d="M0 414.25 L21.65 414.25" class="st1"/>
				</g>
				<g id="shape53-44" v:mID="53" v:groupContext="shape" transform="translate(37.5981,-13.8383)">
					<title>Circle.12</title>
					<v:userDefs>
						<v:ud v:nameU="visVersion" v:val="VT0(14):26"/>
						<v:ud v:nameU="msvThemeColors" v:val="VT0(36):26"/>
						<v:ud v:nameU="msvThemeEffects" v:val="VT0(16):26"/>
					</v:userDefs>
					<path d="M0 402.5 A11.75 11.75 0 1 1 23.5 402.5 A11.75 11.75 0 0 1 0 402.5 Z" class="st3"/>
				</g>
				<g id="shape54-46" v:mID="54" v:groupContext="shape" transform="translate(41.3581,-17.5983)">
					<title>Circle.13</title>
					<v:userDefs>
						<v:ud v:nameU="visVersion" v:val="VT0(14):26"/>
						<v:ud v:nameU="msvThemeColors" v:val="VT0(36):26"/>
						<v:ud v:nameU="msvThemeEffects" v:val="VT0(16):26"/>
					</v:userDefs>
					<path d="M0 406.26 A7.99 7.99 0 0 1 15.98 406.26 A7.99 7.99 0 1 1 -0 406.26 Z" class="st4"/>
				</g>
				<g id="shape55-48" v:mID="55" v:groupContext="shape" transform="translate(332.314,84.5867) rotate(45)">
					<title>Rectangle.11</title>
					<v:userDefs>
						<v:ud v:nameU="visVersion" v:val="VT0(14):26"/>
						<v:ud v:nameU="msvThemeColors" v:val="VT0(36):26"/>
						<v:ud v:nameU="msvThemeEffects" v:val="VT0(16):26"/>
					</v:userDefs>
					<rect x="0" y="392.293" width="30.3398" height="21.9574" class="st4"/>
				</g>
			</g>
			<g id="shape56-50" v:mID="56" v:groupContext="shape" transform="translate(-221.844,169) rotate(-90)">
				<title>Sheet.56</title>
				<v:userDefs>
					<v:ud v:nameU="msvThemeColors" v:val="VT0(36):26"/>
					<v:ud v:nameU="msvThemeEffects" v:val="VT0(16):26"/>
				</v:userDefs>
				<path d="M0 414.25 L64.63 414.25" class="st5"/>
			</g>
			<g id="shape57-54" v:mID="57" v:groupContext="shape" transform="translate(180.656,-233.5)">
				<title>Circle.57</title>
				<v:userDefs>
					<v:ud v:nameU="visVersion" v:val="VT0(14):26"/>
					<v:ud v:nameU="msvThemeColors" v:val="VT0(36):26"/>
					<v:ud v:nameU="msvThemeEffects" v:val="VT0(16):26"/>
				</v:userDefs>
				<path d="M0 402.5 A11.75 11.75 0 0 1 23.5 402.5 A11.75 11.75 0 0 1 0 402.5 Z" class="st6"/>
			</g>
			<g id="shape58-56" v:mID="58" v:groupContext="shape" transform="translate(51.4063,-133.625)">
				<title>Rectangle</title>
				<v:userDefs>
					<v:ud v:nameU="visVersion" v:val="VT0(14):26"/>
					<v:ud v:nameU="msvThemeColors" v:val="VT0(36):26"/>
					<v:ud v:nameU="msvThemeEffects" v:val="VT0(16):26"/>
				</v:userDefs>
				<rect x="0" y="279.125" width="282" height="135.125" class="st7"/>
			</g>
			<g id="shape59-58" v:mID="59" v:groupContext="shape" transform="translate(98.4063,-189.438)">
				<title>Circle.59</title>
				<v:userDefs>
					<v:ud v:nameU="visVersion" v:val="VT0(14):26"/>
					<v:ud v:nameU="msvThemeColors" v:val="VT0(36):26"/>
					<v:ud v:nameU="msvThemeEffects" v:val="VT0(16):26"/>
				</v:userDefs>
				<path d="M0 402.5 A11.75 11.75 0 0 1 23.5 402.5 A11.75 11.75 0 0 1 0 402.5 Z" class="st6"/>
			</g>
			<g id="shape60-60" v:mID="60" v:groupContext="shape" transform="translate(262.906,-189.438)">
				<title>Circle.60</title>
				<v:userDefs>
					<v:ud v:nameU="visVersion" v:val="VT0(14):26"/>
					<v:ud v:nameU="msvThemeColors" v:val="VT0(36):26"/>
					<v:ud v:nameU="msvThemeEffects" v:val="VT0(16):26"/>
				</v:userDefs>
				<path d="M0 402.5 A11.75 11.75 0 0 1 23.5 402.5 A11.75 11.75 0 0 1 0 402.5 Z" class="st6"/>
			</g>
			<g id="shape67-62" v:mID="67" v:groupContext="shape" transform="translate(696.724,338.239) rotate(89.5016)">
				<title>Sheet.67</title>
				<v:userDefs>
					<v:ud v:nameU="msvThemeColors" v:val="VT0(36):26"/>
					<v:ud v:nameU="msvThemeEffects" v:val="VT0(16):26"/>
				</v:userDefs>
				<path d="M0 414.25 L56.29 414.25" class="st1"/>
			</g>
			<g id="shape68-66" v:mID="68" v:groupContext="shape" transform="translate(272.208,-62.127)">
				<title>Circle.68</title>
				<v:userDefs>
					<v:ud v:nameU="visVersion" v:val="VT0(14):26"/>
					<v:ud v:nameU="msvThemeColors" v:val="VT0(36):26"/>
					<v:ud v:nameU="msvThemeEffects" v:val="VT0(16):26"/>
				</v:userDefs>
				<path d="M0 403.97 A10.2813 10.2813 0 0 1 20.56 403.97 A10.2813 10.2813 0 1 1 0 403.97 Z" class="st6"/>
			</g>
			<g id="shape69-68" v:mID="69" v:groupContext="shape" transform="translate(271.229,-4.375)">
				<title>Circle.69</title>
				<v:userDefs>
					<v:ud v:nameU="visVersion" v:val="VT0(14):26"/>
					<v:ud v:nameU="msvThemeColors" v:val="VT0(36):26"/>
					<v:ud v:nameU="msvThemeEffects" v:val="VT0(16):26"/>
				</v:userDefs>
				<path d="M0 402.5 A11.75 11.75 0 1 1 23.5 402.5 A11.75 11.75 0 0 1 0 402.5 Z" class="st6"/>
			</g>
			<g id="shape72-70" v:mID="72" v:groupContext="shape" transform="translate(180.656,-298.125)">
				<title>Circle.72</title>
				<v:userDefs>
					<v:ud v:nameU="visVersion" v:val="VT0(14):26"/>
					<v:ud v:nameU="msvThemeColors" v:val="VT0(36):26"/>
					<v:ud v:nameU="msvThemeEffects" v:val="VT0(16):26"/>
				</v:userDefs>
				<path d="M0 402.5 A11.75 11.75 0 0 1 23.5 402.5 A11.75 11.75 0 0 1 0 402.5 Z" class="st8"/>
			</g>
			<g id="group77-72" transform="translate(171.844,-76.3438)" v:mID="77" v:groupContext="group">
				<v:userDefs>
					<v:ud v:nameU="msvThemeColors" v:val="VT0(36):26"/>
					<v:ud v:nameU="msvThemeEffects" v:val="VT0(16):26"/>
				</v:userDefs>
				<title>Sheet.77</title>
				<g id="shape78-73" v:mID="78" v:groupContext="shape" transform="translate(41.7125,791.695) rotate(180)">
					<title>Rounded rectangle</title>
					<v:userDefs>
						<v:ud v:nameU="visVersion" v:val="VT0(14):26"/>
						<v:ud v:nameU="msvThemeColors" v:val="VT0(36):26"/>
						<v:ud v:nameU="msvThemeEffects" v:val="VT0(16):26"/>
					</v:userDefs>
					<path d="M18.4 414.25 A3.68054 3.68054 -180 0 0 22.08 410.57 A3.68054 3.68054 -180 0 0 18.4 406.89 L3.68 406.89
								 A3.68054 3.68054 -180 0 0 -0 410.57 A3.68054 3.68054 -180 0 0 3.68 414.25 L18.4 414.25 Z"
							class="st2"/>
				</g>
				<g id="shape79-75" v:mID="79" v:groupContext="shape" transform="translate(29.4441,791.695) rotate(180)">
					<title>Rectangle.35</title>
					<v:userDefs>
						<v:ud v:nameU="visVersion" v:val="VT0(14):26"/>
						<v:ud v:nameU="msvThemeColors" v:val="VT0(36):26"/>
						<v:ud v:nameU="msvThemeEffects" v:val="VT0(16):26"/>
					</v:userDefs>
					<rect x="0" y="406.889" width="29.4441" height="7.36103" class="st2"/>
				</g>
				<g id="shape80-77" v:mID="80" v:groupContext="shape" transform="translate(431.426,382.352) rotate(90)">
					<title>Rectangle.36</title>
					<v:userDefs>
						<v:ud v:nameU="visVersion" v:val="VT0(14):26"/>
						<v:ud v:nameU="msvThemeColors" v:val="VT0(36):26"/>
						<v:ud v:nameU="msvThemeEffects" v:val="VT0(16):26"/>
					</v:userDefs>
					<rect x="0" y="406.889" width="31.8978" height="7.36103" class="st2"/>
				</g>
				<g id="shape81-79" v:mID="81" v:groupContext="shape" transform="translate(427.304,380.293) rotate(90)">
					<title>Rectangle.37</title>
					<v:userDefs>
						<v:ud v:nameU="visVersion" v:val="VT0(14):26"/>
						<v:ud v:nameU="msvThemeColors" v:val="VT0(36):26"/>
						<v:ud v:nameU="msvThemeEffects" v:val="VT0(16):26"/>
					</v:userDefs>
					<rect x="0" y="398.645" width="9.42059" height="15.6054" class="st2"/>
				</g>
				<g id="shape82-81" v:mID="82" v:groupContext="shape" transform="translate(24.5368,-19.6294)">
					<title>Circle.38</title>
					<v:userDefs>
						<v:ud v:nameU="visVersion" v:val="VT0(14):26"/>
						<v:ud v:nameU="msvThemeColors" v:val="VT0(36):26"/>
						<v:ud v:nameU="msvThemeEffects" v:val="VT0(16):26"/>
					</v:userDefs>
					<path d="M0 409.34 A4.90735 4.90735 0 0 1 9.81 409.34 A4.90735 4.90735 0 1 1 0 409.34 Z" class="st9"/>
				</g>
				<g id="shape83-83" v:mID="83" v:groupContext="shape" transform="translate(7.36103,-19.6294)">
					<title>Circle.39</title>
					<v:userDefs>
						<v:ud v:nameU="visVersion" v:val="VT0(14):26"/>
						<v:ud v:nameU="msvThemeColors" v:val="VT0(36):26"/>
						<v:ud v:nameU="msvThemeEffects" v:val="VT0(16):26"/>
					</v:userDefs>
					<path d="M0 409.34 A4.90735 4.90735 0 0 1 9.81 409.34 A4.90735 4.90735 0 1 1 0 409.34 Z" class="st9"/>
				</g>
			</g>
			<g id="shape84-85" v:mID="84" v:groupContext="shape" transform="translate(232.458,574.188) rotate(165)">
				<title>Rounded rectangle</title>
				<v:userDefs>
					<v:ud v:nameU="visVersion" v:val="VT0(14):26"/>
					<v:ud v:nameU="msvThemeColors" v:val="VT0(36):26"/>
					<v:ud v:nameU="msvThemeEffects" v:val="VT0(16):26"/>
				</v:userDefs>
				<path d="M38.84 414.25 A3.65462 3.65462 -180 0 0 42.49 410.6 A3.65462 3.65462 -180 0 0 38.84 406.94 L3.65 406.94
							 A3.65462 3.65462 -180 0 0 -0 410.6 A3.65462 3.65462 -180 0 0 3.65 414.25 L38.84 414.25 Z" class="st10"/>
			</g>
			<g id="shape85-87" v:mID="85" v:groupContext="shape" transform="translate(200.741,585.186) rotate(-165)">
				<title>Rounded rectangle.85</title>
				<v:userDefs>
					<v:ud v:nameU="visVersion" v:val="VT0(14):26"/>
					<v:ud v:nameU="msvThemeColors" v:val="VT0(36):26"/>
					<v:ud v:nameU="msvThemeEffects" v:val="VT0(16):26"/>
				</v:userDefs>
				<path d="M38.84 414.25 A3.65462 3.65462 -180 0 0 42.49 410.6 A3.65462 3.65462 -180 0 0 38.84 406.94 L3.65 406.94
							 A3.65462 3.65462 -180 0 0 -0 410.6 A3.65462 3.65462 -180 0 0 3.65 414.25 L38.84 414.25 Z" class="st10"/>
			</g>
			<g id="group86-89" transform="translate(160.094,-148.313)" v:mID="86" v:groupContext="group">
				<v:userDefs>
					<v:ud v:nameU="msvThemeColors" v:val="VT0(36):26"/>
					<v:ud v:nameU="msvThemeEffects" v:val="VT0(16):26"/>
				</v:userDefs>
				<title>Sheet.86</title>
				<g id="shape87-90" v:mID="87" v:groupContext="shape" transform="translate(0,-11.0128)">
					<title>Sheet.87</title>
					<v:userDefs>
						<v:ud v:nameU="msvThemeColors" v:val="VT0(36):26"/>
						<v:ud v:nameU="msvThemeEffects" v:val="VT0(16):26"/>
					</v:userDefs>
					<path d="M0 407.64 C8.81 416.64 20.56 416.64 32.32 407.64" class="st11"/>
				</g>
				<g id="shape88-95" v:mID="88" v:groupContext="shape" transform="translate(32.3056,-11.0013)">
					<title>Sheet.88</title>
					<v:userDefs>
						<v:ud v:nameU="msvThemeColors" v:val="VT0(36):26"/>
						<v:ud v:nameU="msvThemeEffects" v:val="VT0(16):26"/>
					</v:userDefs>
					<path d="M0 407.65 C11.76 416.63 23.51 416.63 32.32 407.65" class="st11"/>
				</g>
			</g>
			<g id="shape47-99" v:mID="47" v:groupContext="shape" transform="translate(108.688,-165.938)">
				<title>Ellipse</title>
				<v:userDefs>
					<v:ud v:nameU="visVersion" v:val="VT0(14):26"/>
					<v:ud v:nameU="msvThemeColors" v:val="VT0(36):26"/>
					<v:ud v:nameU="msvThemeEffects" v:val="VT0(16):26"/>
				</v:userDefs>
				<path d="M0 406.91 A20.5625 7.34375 0 0 1 41.13 406.91 A20.5625 7.34375 0 1 1 0 406.91 Z" class="st12"/>
			</g>
			<g id="shape48-101" v:mID="48" v:groupContext="shape" transform="translate(235,-167.406)">
				<title>Ellipse.48</title>
				<v:userDefs>
					<v:ud v:nameU="visVersion" v:val="VT0(14):26"/>
					<v:ud v:nameU="msvThemeColors" v:val="VT0(36):26"/>
					<v:ud v:nameU="msvThemeEffects" v:val="VT0(16):26"/>
				</v:userDefs>
				<path d="M0 406.91 A20.5625 7.34375 0 0 1 41.13 406.91 A20.5625 7.34375 0 1 1 0 406.91 Z" class="st12"/>
			</g>
			<g id="shape95-103" v:mID="95" v:groupContext="shape" transform="translate(-89.2176,572.116) rotate(-150)">
				<title>Rounded rectangle.95</title>
				<v:userDefs>
					<v:ud v:nameU="visVersion" v:val="VT0(14):26"/>
					<v:ud v:nameU="msvThemeColors" v:val="VT0(36):26"/>
					<v:ud v:nameU="msvThemeEffects" v:val="VT0(16):26"/>
				</v:userDefs>
				<path d="M23.81 414.25 A1.11292 1.11292 -180 0 0 24.92 413.14 A1.11292 1.11292 -180 0 0 23.81 412.02 L1.11 412.02
							 A1.11292 1.11292 -180 0 0 0 413.14 A1.11292 1.11292 -180 0 0 1.11 414.25 L23.81 414.25 Z" class="st10"/>
			</g>
			<g id="shape96-105" v:mID="96" v:groupContext="shape" transform="translate(497.08,560.213) rotate(150)">
				<title>Rounded rectangle.96</title>
				<v:userDefs>
					<v:ud v:nameU="visVersion" v:val="VT0(14):26"/>
					<v:ud v:nameU="msvThemeColors" v:val="VT0(36):26"/>
					<v:ud v:nameU="msvThemeEffects" v:val="VT0(16):26"/>
				</v:userDefs>
				<path d="M23.81 414.25 A1.11292 1.11292 -180 0 0 24.92 413.14 A1.11292 1.11292 -180 0 0 23.81 412.02 L1.11 412.02
							 A1.11292 1.11292 -180 0 0 0 413.14 A1.11292 1.11292 -180 0 0 1.11 414.25 L23.81 414.25 Z" class="st10"/>
			</g>
			<g id="group73-107" transform="translate(176.25,-274.205)" v:mID="73" v:groupContext="group">
				<v:userDefs>
					<v:ud v:nameU="msvThemeColors" v:val="VT0(36):26"/>
					<v:ud v:nameU="msvThemeEffects" v:val="VT0(16):26"/>
				</v:userDefs>
				<title>Sheet.73</title>
				<g id="shape74-108" v:mID="74" v:groupContext="shape" transform="translate(414.25,395.786) rotate(90)">
					<title>Ellipse.74</title>
					<v:userDefs>
						<v:ud v:nameU="visVersion" v:val="VT0(14):26"/>
						<v:ud v:nameU="msvThemeColors" v:val="VT0(36):26"/>
						<v:ud v:nameU="msvThemeEffects" v:val="VT0(16):26"/>
					</v:userDefs>
					<path d="M0 407.33 A9.23214 6.92411 0 1 1 18.46 407.33 A9.23214 6.92411 0 1 1 0 407.33 Z" class="st13"/>
				</g>
				<g id="shape75-110" v:mID="75" v:groupContext="shape" transform="translate(9.23214,-2.30804)">
					<title>Circle.75</title>
					<v:userDefs>
						<v:ud v:nameU="visVersion" v:val="VT0(14):26"/>
						<v:ud v:nameU="msvThemeColors" v:val="VT0(36):26"/>
						<v:ud v:nameU="msvThemeEffects" v:val="VT0(16):26"/>
					</v:userDefs>
					<path d="M0 407.33 A6.92411 6.92411 0 0 1 13.85 407.33 A6.92411 6.92411 0 0 1 0 407.33 Z" class="st13"/>
				</g>
				<g id="shape76-112" v:mID="76" v:groupContext="shape" transform="translate(432.714,395.786) rotate(90)">
					<title>Ellipse.32</title>
					<v:userDefs>
						<v:ud v:nameU="visVersion" v:val="VT0(14):26"/>
						<v:ud v:nameU="msvThemeColors" v:val="VT0(36):26"/>
						<v:ud v:nameU="msvThemeEffects" v:val="VT0(16):26"/>
					</v:userDefs>
					<path d="M0 407.33 A9.23214 6.92411 0 1 1 18.46 407.33 A9.23214 6.92411 0 1 1 0 407.33 Z" class="st13"/>
				</g>
			</g>
			<g id="shape27-114" v:mID="27" v:groupContext="shape" transform="translate(267.941,0)">
				<title>Rectangle.27</title>
				<v:userDefs>
					<v:ud v:nameU="visVersion" v:val="VT0(14):26"/>
					<v:ud v:nameU="msvThemeColors" v:val="VT0(36):26"/>
					<v:ud v:nameU="msvThemeEffects" v:val="VT0(16):26"/>
				</v:userDefs>
				<rect x="0" y="398.5" width="30.3398" height="15.75" class="st4"/>
			</g>
			<g id="group46-116" transform="translate(63.1563,-45.5)" v:mID="46" v:groupContext="group">
				<v:userDefs>
					<v:ud v:nameU="msvThemeColors" v:val="VT0(36):26"/>
					<v:ud v:nameU="msvThemeEffects" v:val="VT0(16):26"/>
				</v:userDefs>
				<title>Sheet.46</title>
				<g id="shape71-117" v:mID="71" v:groupContext="shape">
					<title>Rectangle.71</title>
					<v:userDefs>
						<v:ud v:nameU="visVersion" v:val="VT0(14):26"/>
						<v:ud v:nameU="msvThemeColors" v:val="VT0(36):26"/>
						<v:ud v:nameU="msvThemeEffects" v:val="VT0(16):26"/>
					</v:userDefs>
					<rect x="0" y="320.25" width="258.5" height="94" class="st9"/>
				</g>
			</g>
			<g id="group65-119" transform="translate(81.1915,-1.125)" v:mID="65" v:groupContext="group">
				<v:userDefs>
					<v:ud v:nameU="msvThemeColors" v:val="VT0(36):26"/>
					<v:ud v:nameU="msvThemeEffects" v:val="VT0(16):26"/>
				</v:userDefs>
				<title>Sheet.65</title>
				<g id="shape62-120" v:mID="62" v:groupContext="shape" transform="translate(429.98,339.364) rotate(89.5016)">
					<title>Sheet.62</title>
					<v:userDefs>
						<v:ud v:nameU="msvThemeColors" v:val="VT0(36):26"/>
						<v:ud v:nameU="msvThemeEffects" v:val="VT0(16):26"/>
					</v:userDefs>
					<path d="M0 414.25 L56.29 414.25" class="st1"/>
				</g>
				<g id="shape63-124" v:mID="63" v:groupContext="shape" transform="translate(5.46475,-61.002)">
					<title>Circle.63</title>
					<v:userDefs>
						<v:ud v:nameU="visVersion" v:val="VT0(14):26"/>
						<v:ud v:nameU="msvThemeColors" v:val="VT0(36):26"/>
						<v:ud v:nameU="msvThemeEffects" v:val="VT0(16):26"/>
					</v:userDefs>
					<path d="M0 403.97 A10.2813 10.2813 0 0 1 20.56 403.97 A10.2813 10.2813 0 1 1 0 403.97 Z" class="st6"/>
				</g>
				<g id="shape64-126" v:mID="64" v:groupContext="shape" transform="translate(4.48559,-3.25)">
					<title>Circle.64</title>
					<v:userDefs>
						<v:ud v:nameU="visVersion" v:val="VT0(14):26"/>
						<v:ud v:nameU="msvThemeColors" v:val="VT0(36):26"/>
						<v:ud v:nameU="msvThemeEffects" v:val="VT0(16):26"/>
					</v:userDefs>
					<path d="M0 402.5 A11.75 11.75 0 1 1 23.5 402.5 A11.75 11.75 0 0 1 0 402.5 Z" class="st6"/>
				</g>
				<g id="shape23-128" v:mID="23" v:groupContext="shape">
					<title>Rectangle.23</title>
					<v:userDefs>
						<v:ud v:nameU="visVersion" v:val="VT0(14):26"/>
						<v:ud v:nameU="msvThemeColors" v:val="VT0(36):26"/>
						<v:ud v:nameU="msvThemeEffects" v:val="VT0(16):26"/>
					</v:userDefs>
					<rect x="0" y="398.5" width="30.3398" height="15.75" class="st4"/>
				</g>
			</g>
		</g>
		<g id="shape105-130" v:mID="105" v:groupContext="shape" transform="translate(735.29,422.555) rotate(120)">
			<title>Sheet.105</title>
			<v:userDefs>
				<v:ud v:nameU="msvThemeColors" v:val="VT0(36):26"/>
				<v:ud v:nameU="msvThemeEffects" v:val="VT0(16):26"/>
			</v:userDefs>
			<path d="M12.6 395.79 C12.82 443.15 65.48 386.59 48.34 370.3 C34.4 357.04 -25.77 370.46 12.6 395.79 Z" class="st13"/>
		</g>
		<g id="group98-136" transform="translate(18.25,-19.44)" v:mID="98" v:groupContext="group">
			<v:userDefs>
				<v:ud v:nameU="msvThemeColors" v:val="VT0(36):26"/>
				<v:ud v:nameU="msvThemeEffects" v:val="VT0(16):26"/>
			</v:userDefs>
			<title>Sheet.98</title>
			<g id="shape7-137" v:mID="7" v:groupContext="shape" transform="translate(277.755,663.748) rotate(149.036)">
				<title>Sheet.7</title>
				<v:userDefs>
					<v:ud v:nameU="msvThemeColors" v:val="VT0(36):26"/>
					<v:ud v:nameU="msvThemeEffects" v:val="VT0(16):26"/>
				</v:userDefs>
				<path d="M0 414.25 L42.82 414.25" class="st1"/>
			</g>
			<g id="shape3-141" v:mID="3" v:groupContext="shape" transform="translate(54.3438,-95.4375)">
				<title>Circle.3</title>
				<v:userDefs>
					<v:ud v:nameU="visVersion" v:val="VT0(14):26"/>
					<v:ud v:nameU="msvThemeColors" v:val="VT0(36):26"/>
					<v:ud v:nameU="msvThemeEffects" v:val="VT0(16):26"/>
				</v:userDefs>
				<path d="M0 403.97 A10.2813 10.2813 0 0 1 20.56 403.97 A10.2813 10.2813 0 1 1 0 403.97 Z" class="st2"/>
			</g>
			<g id="shape9-143" v:mID="9" v:groupContext="shape" transform="translate(16.1563,-71.9375)">
				<title>Circle.9</title>
				<v:userDefs>
					<v:ud v:nameU="visVersion" v:val="VT0(14):26"/>
					<v:ud v:nameU="msvThemeColors" v:val="VT0(36):26"/>
					<v:ud v:nameU="msvThemeEffects" v:val="VT0(16):26"/>
				</v:userDefs>
				<path d="M0 402.5 A11.75 11.75 0 1 1 23.5 402.5 A11.75 11.75 0 0 1 0 402.5 Z" class="st3"/>
			</g>
			<g id="shape10-145" v:mID="10" v:groupContext="shape" transform="translate(19.9163,-75.6975)">
				<title>Circle.10</title>
				<v:userDefs>
					<v:ud v:nameU="visVersion" v:val="VT0(14):26"/>
					<v:ud v:nameU="msvThemeColors" v:val="VT0(36):26"/>
					<v:ud v:nameU="msvThemeEffects" v:val="VT0(16):26"/>
				</v:userDefs>
				<path d="M0 406.26 A7.99 7.99 0 0 1 15.98 406.26 A7.99 7.99 0 0 1 0 406.26 Z" class="st4"/>
			</g>
			<g id="shape16-147" v:mID="16" v:groupContext="shape" transform="translate(292.919,42.0237) rotate(45)">
				<title>Rectangle.16</title>
				<v:userDefs>
					<v:ud v:nameU="visVersion" v:val="VT0(14):26"/>
					<v:ud v:nameU="msvThemeColors" v:val="VT0(36):26"/>
					<v:ud v:nameU="msvThemeEffects" v:val="VT0(16):26"/>
				</v:userDefs>
				<rect x="0" y="392.293" width="30.3398" height="21.9574" class="st4"/>
			</g>
			<g id="shape29-149" v:mID="29" v:groupContext="shape" transform="translate(-221.844,169) rotate(-90)">
				<title>Sheet.29</title>
				<v:userDefs>
					<v:ud v:nameU="msvThemeColors" v:val="VT0(36):26"/>
					<v:ud v:nameU="msvThemeEffects" v:val="VT0(16):26"/>
				</v:userDefs>
				<path d="M0 414.25 L64.63 414.25" class="st5"/>
			</g>
			<g id="shape28-153" v:mID="28" v:groupContext="shape" transform="translate(180.656,-233.5)">
				<title>Circle.28</title>
				<v:userDefs>
					<v:ud v:nameU="visVersion" v:val="VT0(14):26"/>
					<v:ud v:nameU="msvThemeColors" v:val="VT0(36):26"/>
					<v:ud v:nameU="msvThemeEffects" v:val="VT0(16):26"/>
				</v:userDefs>
				<path d="M0 402.5 A11.75 11.75 0 0 1 23.5 402.5 A11.75 11.75 0 1 1 -0 402.5 Z" class="st6"/>
			</g>
			<g id="shape1-155" v:mID="1" v:groupContext="shape" transform="translate(51.4063,-133.625)">
				<title>Rectangle.1</title>
				<v:userDefs>
					<v:ud v:nameU="visVersion" v:val="VT0(14):26"/>
					<v:ud v:nameU="msvThemeColors" v:val="VT0(36):26"/>
					<v:ud v:nameU="msvThemeEffects" v:val="VT0(16):26"/>
				</v:userDefs>
				<rect x="0" y="279.125" width="282" height="135.125" class="st7"/>
			</g>
			<g id="shape4-157" v:mID="4" v:groupContext="shape" transform="translate(98.4063,-189.438)">
				<title>Circle.4</title>
				<v:userDefs>
					<v:ud v:nameU="visVersion" v:val="VT0(14):26"/>
					<v:ud v:nameU="msvThemeColors" v:val="VT0(36):26"/>
					<v:ud v:nameU="msvThemeEffects" v:val="VT0(16):26"/>
				</v:userDefs>
				<path d="M0 402.5 A11.75 11.75 0 0 1 23.5 402.5 A11.75 11.75 0 1 1 -0 402.5 Z" class="st6"/>
			</g>
			<g id="shape5-159" v:mID="5" v:groupContext="shape" transform="translate(262.906,-189.438)">
				<title>Circle.5</title>
				<v:userDefs>
					<v:ud v:nameU="visVersion" v:val="VT0(14):26"/>
					<v:ud v:nameU="msvThemeColors" v:val="VT0(36):26"/>
					<v:ud v:nameU="msvThemeEffects" v:val="VT0(16):26"/>
				</v:userDefs>
				<path d="M0 402.5 A11.75 11.75 0 0 1 23.5 402.5 A11.75 11.75 0 1 1 -0 402.5 Z" class="st6"/>
			</g>
			<g id="shape2-161" v:mID="2" v:groupContext="shape" transform="translate(63.1563,-45.5)">
				<title>Rectangle.2</title>
				<v:userDefs>
					<v:ud v:nameU="visVersion" v:val="VT0(14):26"/>
					<v:ud v:nameU="msvThemeColors" v:val="VT0(36):26"/>
					<v:ud v:nameU="msvThemeEffects" v:val="VT0(16):26"/>
				</v:userDefs>
				<rect x="0" y="320.25" width="258.5" height="94" class="st9"/>
			</g>
			<g id="shape31-163" v:mID="31" v:groupContext="shape" transform="translate(180.656,-298.125)">
				<title>Circle.31</title>
				<v:userDefs>
					<v:ud v:nameU="visVersion" v:val="VT0(14):26"/>
					<v:ud v:nameU="msvThemeColors" v:val="VT0(36):26"/>
					<v:ud v:nameU="msvThemeEffects" v:val="VT0(16):26"/>
				</v:userDefs>
				<path d="M0 402.5 A11.75 11.75 0 0 1 23.5 402.5 A11.75 11.75 0 1 1 -0 402.5 Z" class="st8"/>
			</g>
			<g id="group34-165" transform="translate(176.25,-117.049)" v:mID="34" v:groupContext="group">
				<v:userDefs>
					<v:ud v:nameU="msvThemeColors" v:val="VT0(36):26"/>
					<v:ud v:nameU="msvThemeEffects" v:val="VT0(16):26"/>
				</v:userDefs>
				<title>Sheet.34</title>
				<g id="shape30-166" v:mID="30" v:groupContext="shape" transform="translate(414.25,395.786) rotate(90)">
					<title>Ellipse</title>
					<v:userDefs>
						<v:ud v:nameU="visVersion" v:val="VT0(14):26"/>
						<v:ud v:nameU="msvThemeColors" v:val="VT0(36):26"/>
						<v:ud v:nameU="msvThemeEffects" v:val="VT0(16):26"/>
					</v:userDefs>
					<path d="M0 407.33 A9.23214 6.92411 0 0 1 18.46 407.33 A9.23214 6.92411 0 0 1 0 407.33 Z" class="st15"/>
				</g>
				<g id="shape33-168" v:mID="33" v:groupContext="shape" transform="translate(9.23214,-2.30804)">
					<title>Circle</title>
					<v:userDefs>
						<v:ud v:nameU="visVersion" v:val="VT0(14):26"/>
						<v:ud v:nameU="msvThemeColors" v:val="VT0(36):26"/>
						<v:ud v:nameU="msvThemeEffects" v:val="VT0(16):26"/>
					</v:userDefs>
					<path d="M0 407.33 A6.92411 6.92411 0 0 1 13.85 407.33 A6.92411 6.92411 0 1 1 0 407.33 Z" class="st15"/>
				</g>
				<g id="shape32-170" v:mID="32" v:groupContext="shape" transform="translate(432.714,395.786) rotate(90)">
					<title>Ellipse.32</title>
					<v:userDefs>
						<v:ud v:nameU="visVersion" v:val="VT0(14):26"/>
						<v:ud v:nameU="msvThemeColors" v:val="VT0(36):26"/>
						<v:ud v:nameU="msvThemeEffects" v:val="VT0(16):26"/>
					</v:userDefs>
					<path d="M0 407.33 A9.23214 6.92411 0 0 1 18.46 407.33 A9.23214 6.92411 0 0 1 0 407.33 Z" class="st15"/>
				</g>
			</g>
			<g id="group40-172" transform="translate(171.844,-76.3438)" v:mID="40" v:groupContext="group">
				<v:userDefs>
					<v:ud v:nameU="msvThemeColors" v:val="VT0(36):26"/>
					<v:ud v:nameU="msvThemeEffects" v:val="VT0(16):26"/>
				</v:userDefs>
				<title>Sheet.40</title>
				<g id="shape15-173" v:mID="15" v:groupContext="shape" transform="translate(41.7125,791.695) rotate(180)">
					<title>Rounded rectangle</title>
					<v:userDefs>
						<v:ud v:nameU="visVersion" v:val="VT0(14):26"/>
						<v:ud v:nameU="msvThemeColors" v:val="VT0(36):26"/>
						<v:ud v:nameU="msvThemeEffects" v:val="VT0(16):26"/>
					</v:userDefs>
					<path d="M18.4 414.25 A3.68054 3.68054 -180 0 0 22.08 410.57 A3.68054 3.68054 -180 0 0 18.4 406.89 L3.68 406.89
								 A3.68054 3.68054 -180 0 0 -0 410.57 A3.68054 3.68054 -180 0 0 3.68 414.25 L18.4 414.25 Z"
							class="st2"/>
				</g>
				<g id="shape35-175" v:mID="35" v:groupContext="shape" transform="translate(29.4441,791.695) rotate(180)">
					<title>Rectangle.35</title>
					<v:userDefs>
						<v:ud v:nameU="visVersion" v:val="VT0(14):26"/>
						<v:ud v:nameU="msvThemeColors" v:val="VT0(36):26"/>
						<v:ud v:nameU="msvThemeEffects" v:val="VT0(16):26"/>
					</v:userDefs>
					<rect x="0" y="406.889" width="29.4441" height="7.36103" class="st2"/>
				</g>
				<g id="shape36-177" v:mID="36" v:groupContext="shape" transform="translate(431.426,382.352) rotate(90)">
					<title>Rectangle.36</title>
					<v:userDefs>
						<v:ud v:nameU="visVersion" v:val="VT0(14):26"/>
						<v:ud v:nameU="msvThemeColors" v:val="VT0(36):26"/>
						<v:ud v:nameU="msvThemeEffects" v:val="VT0(16):26"/>
					</v:userDefs>
					<rect x="0" y="406.889" width="31.8978" height="7.36103" class="st2"/>
				</g>
				<g id="shape37-179" v:mID="37" v:groupContext="shape" transform="translate(427.304,380.293) rotate(90)">
					<title>Rectangle.37</title>
					<v:userDefs>
						<v:ud v:nameU="visVersion" v:val="VT0(14):26"/>
						<v:ud v:nameU="msvThemeColors" v:val="VT0(36):26"/>
						<v:ud v:nameU="msvThemeEffects" v:val="VT0(16):26"/>
					</v:userDefs>
					<rect x="0" y="398.645" width="9.42059" height="15.6054" class="st2"/>
				</g>
				<g id="shape38-181" v:mID="38" v:groupContext="shape" transform="translate(24.5368,-19.6294)">
					<title>Circle.38</title>
					<v:userDefs>
						<v:ud v:nameU="visVersion" v:val="VT0(14):26"/>
						<v:ud v:nameU="msvThemeColors" v:val="VT0(36):26"/>
						<v:ud v:nameU="msvThemeEffects" v:val="VT0(16):26"/>
					</v:userDefs>
					<path d="M0 409.34 A4.90735 4.90735 0 0 1 9.81 409.34 A4.90735 4.90735 0 0 1 0 409.34 Z" class="st9"/>
				</g>
				<g id="shape39-183" v:mID="39" v:groupContext="shape" transform="translate(7.36103,-19.6294)">
					<title>Circle.39</title>
					<v:userDefs>
						<v:ud v:nameU="visVersion" v:val="VT0(14):26"/>
						<v:ud v:nameU="msvThemeColors" v:val="VT0(36):26"/>
						<v:ud v:nameU="msvThemeEffects" v:val="VT0(16):26"/>
					</v:userDefs>
					<path d="M0 409.34 A4.90735 4.90735 0 0 1 9.81 409.34 A4.90735 4.90735 0 0 1 0 409.34 Z" class="st9"/>
				</g>
			</g>
			<g id="shape42-185" v:mID="42" v:groupContext="shape" transform="translate(232.458,574.188) rotate(165)">
				<title>Rounded rectangle.42</title>
				<v:userDefs>
					<v:ud v:nameU="visVersion" v:val="VT0(14):26"/>
					<v:ud v:nameU="msvThemeColors" v:val="VT0(36):26"/>
					<v:ud v:nameU="msvThemeEffects" v:val="VT0(16):26"/>
				</v:userDefs>
				<path d="M38.84 414.25 A3.65462 3.65462 -180 0 0 42.49 410.6 A3.65462 3.65462 -180 0 0 38.84 406.94 L3.65 406.94
							 A3.65462 3.65462 -180 0 0 -0 410.6 A3.65462 3.65462 -180 0 0 3.65 414.25 L38.84 414.25 Z" class="st10"/>
			</g>
			<g id="shape41-187" v:mID="41" v:groupContext="shape" transform="translate(200.741,585.186) rotate(-165)">
				<title>Rounded rectangle.41</title>
				<v:userDefs>
					<v:ud v:nameU="visVersion" v:val="VT0(14):26"/>
					<v:ud v:nameU="msvThemeColors" v:val="VT0(36):26"/>
					<v:ud v:nameU="msvThemeEffects" v:val="VT0(16):26"/>
				</v:userDefs>
				<path d="M38.84 414.25 A3.65462 3.65462 -180 0 0 42.49 410.6 A3.65462 3.65462 -180 0 0 38.84 406.94 L3.65 406.94
							 A3.65462 3.65462 -180 0 0 -0 410.6 A3.65462 3.65462 -180 0 0 3.65 414.25 L38.84 414.25 Z" class="st10"/>
			</g>
			<g id="group45-189" transform="translate(160.094,-148.313)" v:mID="45" v:groupContext="group">
				<v:userDefs>
					<v:ud v:nameU="msvThemeColors" v:val="VT0(36):26"/>
					<v:ud v:nameU="msvThemeEffects" v:val="VT0(16):26"/>
				</v:userDefs>
				<title>Sheet.45</title>
				<g id="shape43-190" v:mID="43" v:groupContext="shape" transform="translate(0,-11.0128)">
					<title>Sheet.43</title>
					<v:userDefs>
						<v:ud v:nameU="msvThemeColors" v:val="VT0(36):26"/>
						<v:ud v:nameU="msvThemeEffects" v:val="VT0(16):26"/>
					</v:userDefs>
					<path d="M0 407.64 C8.81 416.64 20.56 416.64 32.32 407.64" class="st11"/>
				</g>
				<g id="shape44-194" v:mID="44" v:groupContext="shape" transform="translate(32.3056,-11.0013)">
					<title>Sheet.44</title>
					<v:userDefs>
						<v:ud v:nameU="msvThemeColors" v:val="VT0(36):26"/>
						<v:ud v:nameU="msvThemeEffects" v:val="VT0(16):26"/>
					</v:userDefs>
					<path d="M0 407.65 C11.76 416.63 23.51 416.63 32.32 407.65" class="st11"/>
				</g>
			</g>
			<g id="group61-198" transform="translate(267.5,0)" v:mID="61" v:groupContext="group">
				<v:userDefs>
					<v:ud v:nameU="msvThemeColors" v:val="VT0(36):26"/>
					<v:ud v:nameU="msvThemeEffects" v:val="VT0(16):26"/>
				</v:userDefs>
				<title>Sheet.61</title>
				<g id="shape24-199" v:mID="24" v:groupContext="shape" transform="translate(429.224,338.239) rotate(89.5016)">
					<title>Sheet.24</title>
					<v:userDefs>
						<v:ud v:nameU="msvThemeColors" v:val="VT0(36):26"/>
						<v:ud v:nameU="msvThemeEffects" v:val="VT0(16):26"/>
					</v:userDefs>
					<path d="M0 414.25 L56.29 414.25" class="st1"/>
				</g>
				<g id="shape25-203" v:mID="25" v:groupContext="shape" transform="translate(4.70833,-62.127)">
					<title>Circle.25</title>
					<v:userDefs>
						<v:ud v:nameU="visVersion" v:val="VT0(14):26"/>
						<v:ud v:nameU="msvThemeColors" v:val="VT0(36):26"/>
						<v:ud v:nameU="msvThemeEffects" v:val="VT0(16):26"/>
					</v:userDefs>
					<path d="M0 403.97 A10.2813 10.2813 0 0 1 20.56 403.97 A10.2813 10.2813 0 0 1 0 403.97 Z" class="st6"/>
				</g>
				<g id="shape26-205" v:mID="26" v:groupContext="shape" transform="translate(3.72917,-4.375)">
					<title>Circle.26</title>
					<v:userDefs>
						<v:ud v:nameU="visVersion" v:val="VT0(14):26"/>
						<v:ud v:nameU="msvThemeColors" v:val="VT0(36):26"/>
						<v:ud v:nameU="msvThemeEffects" v:val="VT0(16):26"/>
					</v:userDefs>
					<path d="M0 402.5 A11.75 11.75 0 1 1 23.5 402.5 A11.75 11.75 0 0 1 0 402.5 Z" class="st6"/>
				</g>
				<g id="shape22-207" v:mID="22" v:groupContext="shape">
					<title>Rectangle.22</title>
					<v:userDefs>
						<v:ud v:nameU="visVersion" v:val="VT0(14):26"/>
						<v:ud v:nameU="msvThemeColors" v:val="VT0(36):26"/>
						<v:ud v:nameU="msvThemeEffects" v:val="VT0(16):26"/>
					</v:userDefs>
					<rect x="0" y="398.5" width="30.3398" height="15.75" class="st4"/>
				</g>
			</g>
			<g id="group66-209" transform="translate(82.2572,0)" v:mID="66" v:groupContext="group">
				<v:userDefs>
					<v:ud v:nameU="msvThemeColors" v:val="VT0(36):26"/>
					<v:ud v:nameU="msvThemeEffects" v:val="VT0(16):26"/>
				</v:userDefs>
				<title>Sheet.66</title>
				<g id="shape19-210" v:mID="19" v:groupContext="shape" transform="translate(428.915,338.239) rotate(89.5016)">
					<title>Sheet.19</title>
					<v:userDefs>
						<v:ud v:nameU="msvThemeColors" v:val="VT0(36):26"/>
						<v:ud v:nameU="msvThemeEffects" v:val="VT0(16):26"/>
					</v:userDefs>
					<path d="M0 414.25 L56.29 414.25" class="st1"/>
				</g>
				<g id="shape20-214" v:mID="20" v:groupContext="shape" transform="translate(4.39904,-62.127)">
					<title>Circle</title>
					<v:userDefs>
						<v:ud v:nameU="visVersion" v:val="VT0(14):26"/>
						<v:ud v:nameU="msvThemeColors" v:val="VT0(36):26"/>
						<v:ud v:nameU="msvThemeEffects" v:val="VT0(16):26"/>
					</v:userDefs>
					<path d="M0 403.97 A10.2813 10.2813 0 0 1 20.56 403.97 A10.2813 10.2813 0 0 1 0 403.97 Z" class="st6"/>
				</g>
				<g id="shape21-216" v:mID="21" v:groupContext="shape" transform="translate(3.41988,-4.375)">
					<title>Circle.9</title>
					<v:userDefs>
						<v:ud v:nameU="visVersion" v:val="VT0(14):26"/>
						<v:ud v:nameU="msvThemeColors" v:val="VT0(36):26"/>
						<v:ud v:nameU="msvThemeEffects" v:val="VT0(16):26"/>
					</v:userDefs>
					<path d="M0 402.5 A11.75 11.75 0 1 1 23.5 402.5 A11.75 11.75 0 0 1 0 402.5 Z" class="st6"/>
				</g>
				<g id="shape18-218" v:mID="18" v:groupContext="shape">
					<title>Rectangle.18</title>
					<v:userDefs>
						<v:ud v:nameU="visVersion" v:val="VT0(14):26"/>
						<v:ud v:nameU="msvThemeColors" v:val="VT0(36):26"/>
						<v:ud v:nameU="msvThemeEffects" v:val="VT0(16):26"/>
					</v:userDefs>
					<rect x="0" y="398.5" width="30.3398" height="15.75" class="st4"/>
				</g>
			</g>
		</g>
		<g id="group100-220" transform="translate(137.25,-332.598)" v:mID="100" v:groupContext="group">
			<v:userDefs>
				<v:ud v:nameU="msvThemeColors" v:val="VT0(36):26"/>
				<v:ud v:nameU="msvThemeEffects" v:val="VT0(16):26"/>
			</v:userDefs>
			<title>Sheet.100</title>
			<g id="shape99-221" v:mID="99" v:groupContext="shape" transform="translate(27,795.56) rotate(180)">
				<title>Triangle</title>
				<v:userDefs>
					<v:ud v:nameU="visVersion" v:val="VT0(14):26"/>
					<v:ud v:nameU="msvThemeColors" v:val="VT0(36):26"/>
					<v:ud v:nameU="msvThemeEffects" v:val="VT0(16):26"/>
				</v:userDefs>
				<path d="M19.39 414.25 L9 381.31 L-1.39 414.25 L19.39 414.25 Z" class="st16"/>
			</g>
			<g id="shape97-223" v:mID="97" v:groupContext="shape" transform="translate(98.75,387.652) rotate(-90)">
				<title>Balloon horizontal</title>
				<desc>Pammy baby you’re the one for me. You’re cute!</desc>
				<v:userDefs>
					<v:ud v:nameU="Scale" v:val="VT0(1):26"/>
					<v:ud v:nameU="AntiScale" v:val="VT0(1):26"/>
					<v:ud v:nameU="visVersion" v:val="VT0(14):26"/>
					<v:ud v:nameU="msvThemeColors" v:val="VT0(36):26"/>
					<v:ud v:nameU="msvThemeEffects" v:val="VT0(16):26"/>
				</v:userDefs>
				<v:textBlock v:margins="rect(4,4,4,4)"/>
				<v:textRect cx="18.4017" cy="157.75" width="513" height="36.8035" transform="rotate(90)"/>
				<path d="M0 414.25 L0 -98.75 L18.4 -98.75 L18.4 -103.25 L18.4 -98.75 L36.8 -98.75 L36.8 414.25 L0 414.25 Z"
						class="st16"/>
				<text x="-73.05" y="-11.2" transform="rotate(90)" class="st17" v:langID="1033"><v:paragraph/><v:tabList/>Pammy baby you’re the one for me. You’re cute!</text>			</g>
		</g>
	</g>
</svg>
